<mxfile host="app.diagrams.net" agent="Mozilla/5.0 (Windows NT 10.0; Win64; x64) AppleWebKit/537.36 (KHTML, like Gecko) Chrome/130.0.0.0 Safari/537.36 Edg/130.0.0.0" version="24.8.0" pages="6">
  <diagram name="Pagina-1" id="SqCt3KQoh1731EIPL-oW">
    <mxGraphModel dx="1042" dy="531" grid="1" gridSize="10" guides="1" tooltips="1" connect="1" arrows="1" fold="1" page="1" pageScale="1" pageWidth="827" pageHeight="1169" math="0" shadow="0">
      <root>
        <mxCell id="0" />
        <mxCell id="1" parent="0" />
        <mxCell id="jO2R0hOtcdFEv0qmPZ_9-2" value="&lt;b&gt;&lt;font style=&quot;font-size: 20px;&quot;&gt;4&lt;/font&gt;&lt;/b&gt;" style="rounded=0;whiteSpace=wrap;html=1;" vertex="1" parent="1">
          <mxGeometry x="214" y="370" width="200" height="40" as="geometry" />
        </mxCell>
        <mxCell id="jO2R0hOtcdFEv0qmPZ_9-3" value="&lt;b&gt;&lt;font style=&quot;font-size: 20px;&quot;&gt;3&lt;/font&gt;&lt;/b&gt;" style="rounded=0;whiteSpace=wrap;html=1;" vertex="1" parent="1">
          <mxGeometry x="214" y="410" width="200" height="40" as="geometry" />
        </mxCell>
        <mxCell id="jO2R0hOtcdFEv0qmPZ_9-4" value="&lt;b&gt;&lt;font style=&quot;font-size: 20px;&quot;&gt;2&lt;/font&gt;&lt;/b&gt;" style="rounded=0;whiteSpace=wrap;html=1;" vertex="1" parent="1">
          <mxGeometry x="214" y="450" width="200" height="40" as="geometry" />
        </mxCell>
        <mxCell id="jO2R0hOtcdFEv0qmPZ_9-5" value="&lt;b&gt;&lt;font style=&quot;font-size: 20px;&quot;&gt;1&lt;/font&gt;&lt;/b&gt;" style="rounded=0;whiteSpace=wrap;html=1;" vertex="1" parent="1">
          <mxGeometry x="214" y="490" width="200" height="40" as="geometry" />
        </mxCell>
        <mxCell id="jO2R0hOtcdFEv0qmPZ_9-6" value="&lt;b&gt;&lt;font style=&quot;font-size: 20px;&quot;&gt;5&lt;/font&gt;&lt;/b&gt;" style="rounded=0;whiteSpace=wrap;html=1;" vertex="1" parent="1">
          <mxGeometry x="214" y="330" width="200" height="40" as="geometry" />
        </mxCell>
        <mxCell id="jO2R0hOtcdFEv0qmPZ_9-7" value="&lt;b&gt;&lt;font style=&quot;font-size: 20px;&quot;&gt;5&lt;/font&gt;&lt;/b&gt;" style="rounded=0;whiteSpace=wrap;html=1;" vertex="1" parent="1">
          <mxGeometry x="214" y="530" width="200" height="40" as="geometry" />
        </mxCell>
        <mxCell id="jO2R0hOtcdFEv0qmPZ_9-8" value="" style="rounded=0;whiteSpace=wrap;html=1;strokeWidth=4;strokeColor=#3333FF;fillColor=none;" vertex="1" parent="1">
          <mxGeometry x="214" y="370" width="200" height="160" as="geometry" />
        </mxCell>
        <mxCell id="jO2R0hOtcdFEv0qmPZ_9-9" value="" style="rounded=0;whiteSpace=wrap;html=1;" vertex="1" parent="1">
          <mxGeometry x="214" y="170" width="200" height="160" as="geometry" />
        </mxCell>
        <mxCell id="jO2R0hOtcdFEv0qmPZ_9-10" value="" style="html=1;shadow=0;dashed=0;align=center;verticalAlign=middle;shape=mxgraph.arrows2.arrow;dy=0.6;dx=40;notch=0;" vertex="1" parent="1">
          <mxGeometry x="134" y="360" width="70" height="20" as="geometry" />
        </mxCell>
        <mxCell id="jO2R0hOtcdFEv0qmPZ_9-11" value="&lt;font style=&quot;font-size: 20px;&quot;&gt;&lt;b&gt;BITPLANE POINTER&lt;/b&gt;&lt;/font&gt;" style="text;html=1;align=center;verticalAlign=middle;whiteSpace=wrap;rounded=0;" vertex="1" parent="1">
          <mxGeometry x="74" y="310" width="120" height="30" as="geometry" />
        </mxCell>
        <mxCell id="UPtEGhF1CWO7SacfSXyK-1" value="" style="endArrow=classic;startArrow=classic;html=1;rounded=0;" edge="1" parent="1">
          <mxGeometry width="50" height="50" relative="1" as="geometry">
            <mxPoint x="214" y="590" as="sourcePoint" />
            <mxPoint x="414" y="590" as="targetPoint" />
          </mxGeometry>
        </mxCell>
        <mxCell id="UPtEGhF1CWO7SacfSXyK-2" value="320 pixel" style="text;html=1;align=center;verticalAlign=middle;whiteSpace=wrap;rounded=0;fontStyle=1;fontSize=18;" vertex="1" parent="1">
          <mxGeometry x="259" y="600" width="110" height="30" as="geometry" />
        </mxCell>
        <mxCell id="UPtEGhF1CWO7SacfSXyK-3" value="" style="endArrow=classic;startArrow=classic;html=1;rounded=0;" edge="1" parent="1">
          <mxGeometry width="50" height="50" relative="1" as="geometry">
            <mxPoint x="450" y="530" as="sourcePoint" />
            <mxPoint x="450" y="370" as="targetPoint" />
          </mxGeometry>
        </mxCell>
        <mxCell id="UPtEGhF1CWO7SacfSXyK-4" value="" style="endArrow=classic;startArrow=classic;html=1;rounded=0;" edge="1" parent="1">
          <mxGeometry width="50" height="50" relative="1" as="geometry">
            <mxPoint x="450" y="570" as="sourcePoint" />
            <mxPoint x="450" y="530" as="targetPoint" />
          </mxGeometry>
        </mxCell>
        <mxCell id="UPtEGhF1CWO7SacfSXyK-5" value="" style="endArrow=classic;startArrow=classic;html=1;rounded=0;" edge="1" parent="1">
          <mxGeometry width="50" height="50" relative="1" as="geometry">
            <mxPoint x="450" y="330" as="sourcePoint" />
            <mxPoint x="450" y="170" as="targetPoint" />
          </mxGeometry>
        </mxCell>
        <mxCell id="UPtEGhF1CWO7SacfSXyK-6" value="" style="endArrow=classic;startArrow=classic;html=1;rounded=0;" edge="1" parent="1">
          <mxGeometry width="50" height="50" relative="1" as="geometry">
            <mxPoint x="450" y="370" as="sourcePoint" />
            <mxPoint x="450" y="330" as="targetPoint" />
          </mxGeometry>
        </mxCell>
        <mxCell id="UPtEGhF1CWO7SacfSXyK-7" value="64 pixel" style="text;html=1;align=center;verticalAlign=middle;whiteSpace=wrap;rounded=0;fontStyle=1;fontSize=18;" vertex="1" parent="1">
          <mxGeometry x="470" y="535" width="110" height="30" as="geometry" />
        </mxCell>
        <mxCell id="UPtEGhF1CWO7SacfSXyK-8" value="64 pixel" style="text;html=1;align=center;verticalAlign=middle;whiteSpace=wrap;rounded=0;fontStyle=1;fontSize=18;" vertex="1" parent="1">
          <mxGeometry x="470" y="335" width="110" height="30" as="geometry" />
        </mxCell>
        <mxCell id="UPtEGhF1CWO7SacfSXyK-9" value="256 pixel" style="text;html=1;align=center;verticalAlign=middle;whiteSpace=wrap;rounded=0;fontStyle=1;fontSize=18;" vertex="1" parent="1">
          <mxGeometry x="470" y="435" width="110" height="30" as="geometry" />
        </mxCell>
        <mxCell id="UPtEGhF1CWO7SacfSXyK-10" value="256 pixel" style="text;html=1;align=center;verticalAlign=middle;whiteSpace=wrap;rounded=0;fontStyle=1;fontSize=18;" vertex="1" parent="1">
          <mxGeometry x="470" y="235" width="110" height="30" as="geometry" />
        </mxCell>
      </root>
    </mxGraphModel>
  </diagram>
  <diagram name="Pagina-2" id="iOvzPpBHhij_Nm66Y3JP">
    <mxGraphModel dx="1042" dy="531" grid="1" gridSize="10" guides="1" tooltips="1" connect="1" arrows="1" fold="1" page="1" pageScale="1" pageWidth="827" pageHeight="1169" math="0" shadow="0">
      <root>
        <mxCell id="e2MZyj6y4xGT_VGEitPV-0" />
        <mxCell id="e2MZyj6y4xGT_VGEitPV-1" parent="e2MZyj6y4xGT_VGEitPV-0" />
        <mxCell id="e2MZyj6y4xGT_VGEitPV-2" value="&lt;b&gt;&lt;font style=&quot;font-size: 20px;&quot;&gt;4&lt;/font&gt;&lt;/b&gt;" style="rounded=0;whiteSpace=wrap;html=1;" vertex="1" parent="e2MZyj6y4xGT_VGEitPV-1">
          <mxGeometry x="214" y="370" width="200" height="40" as="geometry" />
        </mxCell>
        <mxCell id="e2MZyj6y4xGT_VGEitPV-3" value="&lt;b&gt;&lt;font style=&quot;font-size: 20px;&quot;&gt;3&lt;/font&gt;&lt;/b&gt;" style="rounded=0;whiteSpace=wrap;html=1;" vertex="1" parent="e2MZyj6y4xGT_VGEitPV-1">
          <mxGeometry x="214" y="410" width="200" height="40" as="geometry" />
        </mxCell>
        <mxCell id="e2MZyj6y4xGT_VGEitPV-4" value="&lt;b&gt;&lt;font style=&quot;font-size: 20px;&quot;&gt;2&lt;/font&gt;&lt;/b&gt;" style="rounded=0;whiteSpace=wrap;html=1;" vertex="1" parent="e2MZyj6y4xGT_VGEitPV-1">
          <mxGeometry x="214" y="450" width="200" height="40" as="geometry" />
        </mxCell>
        <mxCell id="e2MZyj6y4xGT_VGEitPV-5" value="&lt;b&gt;&lt;font style=&quot;font-size: 20px;&quot;&gt;1&lt;/font&gt;&lt;/b&gt;" style="rounded=0;whiteSpace=wrap;html=1;" vertex="1" parent="e2MZyj6y4xGT_VGEitPV-1">
          <mxGeometry x="214" y="490" width="200" height="40" as="geometry" />
        </mxCell>
        <mxCell id="e2MZyj6y4xGT_VGEitPV-6" value="&lt;b&gt;&lt;font style=&quot;font-size: 20px;&quot;&gt;5&lt;/font&gt;&lt;/b&gt;" style="rounded=0;whiteSpace=wrap;html=1;" vertex="1" parent="e2MZyj6y4xGT_VGEitPV-1">
          <mxGeometry x="214" y="330" width="200" height="40" as="geometry" />
        </mxCell>
        <mxCell id="e2MZyj6y4xGT_VGEitPV-7" value="&lt;b&gt;&lt;font style=&quot;font-size: 20px;&quot;&gt;5&lt;/font&gt;&lt;/b&gt;" style="rounded=0;whiteSpace=wrap;html=1;" vertex="1" parent="e2MZyj6y4xGT_VGEitPV-1">
          <mxGeometry x="214" y="530" width="200" height="40" as="geometry" />
        </mxCell>
        <mxCell id="e2MZyj6y4xGT_VGEitPV-8" value="" style="rounded=0;whiteSpace=wrap;html=1;strokeWidth=4;strokeColor=#3333FF;fillColor=none;" vertex="1" parent="e2MZyj6y4xGT_VGEitPV-1">
          <mxGeometry x="214" y="350" width="200" height="160" as="geometry" />
        </mxCell>
        <mxCell id="e2MZyj6y4xGT_VGEitPV-9" value="" style="rounded=0;whiteSpace=wrap;html=1;" vertex="1" parent="e2MZyj6y4xGT_VGEitPV-1">
          <mxGeometry x="214" y="170" width="200" height="160" as="geometry" />
        </mxCell>
        <mxCell id="e2MZyj6y4xGT_VGEitPV-10" value="" style="html=1;shadow=0;dashed=0;align=center;verticalAlign=middle;shape=mxgraph.arrows2.arrow;dy=0.6;dx=40;notch=0;" vertex="1" parent="e2MZyj6y4xGT_VGEitPV-1">
          <mxGeometry x="134" y="340" width="70" height="20" as="geometry" />
        </mxCell>
        <mxCell id="e2MZyj6y4xGT_VGEitPV-11" value="&lt;font style=&quot;font-size: 20px;&quot;&gt;&lt;b&gt;BITPLANE POINTER&lt;/b&gt;&lt;/font&gt;" style="text;html=1;align=center;verticalAlign=middle;whiteSpace=wrap;rounded=0;" vertex="1" parent="e2MZyj6y4xGT_VGEitPV-1">
          <mxGeometry x="74" y="290" width="120" height="30" as="geometry" />
        </mxCell>
      </root>
    </mxGraphModel>
  </diagram>
  <diagram name="Pagina-3" id="r4b1oYiAFaRDGS6fOepq">
    <mxGraphModel dx="1042" dy="531" grid="1" gridSize="10" guides="1" tooltips="1" connect="1" arrows="1" fold="1" page="1" pageScale="1" pageWidth="827" pageHeight="1169" math="0" shadow="0">
      <root>
        <mxCell id="oWHSMYq1s4sGmrlOcwrl-0" />
        <mxCell id="oWHSMYq1s4sGmrlOcwrl-1" parent="oWHSMYq1s4sGmrlOcwrl-0" />
        <mxCell id="oWHSMYq1s4sGmrlOcwrl-2" value="&lt;b&gt;&lt;font style=&quot;font-size: 20px;&quot;&gt;4&lt;/font&gt;&lt;/b&gt;" style="rounded=0;whiteSpace=wrap;html=1;" vertex="1" parent="oWHSMYq1s4sGmrlOcwrl-1">
          <mxGeometry x="214" y="370" width="200" height="40" as="geometry" />
        </mxCell>
        <mxCell id="oWHSMYq1s4sGmrlOcwrl-3" value="&lt;b&gt;&lt;font style=&quot;font-size: 20px;&quot;&gt;3&lt;/font&gt;&lt;/b&gt;" style="rounded=0;whiteSpace=wrap;html=1;" vertex="1" parent="oWHSMYq1s4sGmrlOcwrl-1">
          <mxGeometry x="214" y="410" width="200" height="40" as="geometry" />
        </mxCell>
        <mxCell id="oWHSMYq1s4sGmrlOcwrl-4" value="&lt;b&gt;&lt;font style=&quot;font-size: 20px;&quot;&gt;2&lt;/font&gt;&lt;/b&gt;" style="rounded=0;whiteSpace=wrap;html=1;" vertex="1" parent="oWHSMYq1s4sGmrlOcwrl-1">
          <mxGeometry x="214" y="450" width="200" height="40" as="geometry" />
        </mxCell>
        <mxCell id="oWHSMYq1s4sGmrlOcwrl-6" value="&lt;b&gt;&lt;font style=&quot;font-size: 20px;&quot;&gt;5&lt;/font&gt;&lt;/b&gt;" style="rounded=0;whiteSpace=wrap;html=1;" vertex="1" parent="oWHSMYq1s4sGmrlOcwrl-1">
          <mxGeometry x="214" y="330" width="200" height="40" as="geometry" />
        </mxCell>
        <mxCell id="oWHSMYq1s4sGmrlOcwrl-7" value="&lt;b&gt;&lt;font style=&quot;font-size: 20px;&quot;&gt;5&lt;/font&gt;&lt;/b&gt;" style="rounded=0;whiteSpace=wrap;html=1;" vertex="1" parent="oWHSMYq1s4sGmrlOcwrl-1">
          <mxGeometry x="214" y="530" width="200" height="40" as="geometry" />
        </mxCell>
        <mxCell id="oWHSMYq1s4sGmrlOcwrl-9" value="" style="rounded=0;whiteSpace=wrap;html=1;" vertex="1" parent="oWHSMYq1s4sGmrlOcwrl-1">
          <mxGeometry x="214" y="170" width="200" height="160" as="geometry" />
        </mxCell>
        <mxCell id="oWHSMYq1s4sGmrlOcwrl-10" value="" style="html=1;shadow=0;dashed=0;align=center;verticalAlign=middle;shape=mxgraph.arrows2.arrow;dy=0.6;dx=40;notch=0;" vertex="1" parent="oWHSMYq1s4sGmrlOcwrl-1">
          <mxGeometry x="134" y="320" width="70" height="20" as="geometry" />
        </mxCell>
        <mxCell id="oWHSMYq1s4sGmrlOcwrl-11" value="&lt;font style=&quot;font-size: 20px;&quot;&gt;&lt;b&gt;BITPLANE POINTER&lt;/b&gt;&lt;/font&gt;" style="text;html=1;align=center;verticalAlign=middle;whiteSpace=wrap;rounded=0;" vertex="1" parent="oWHSMYq1s4sGmrlOcwrl-1">
          <mxGeometry x="74" y="270" width="120" height="30" as="geometry" />
        </mxCell>
        <mxCell id="VPOAGAD8rz79NMH7I3IX-0" value="" style="endArrow=classic;startArrow=classic;html=1;rounded=0;" edge="1" parent="oWHSMYq1s4sGmrlOcwrl-1">
          <mxGeometry width="50" height="50" relative="1" as="geometry">
            <mxPoint x="450" y="570" as="sourcePoint" />
            <mxPoint x="450" y="330" as="targetPoint" />
          </mxGeometry>
        </mxCell>
        <mxCell id="VPOAGAD8rz79NMH7I3IX-1" value="384 pixel,&lt;div&gt;multiple of 64&lt;/div&gt;" style="text;html=1;align=center;verticalAlign=middle;whiteSpace=wrap;rounded=0;fontStyle=1;fontSize=18;" vertex="1" parent="oWHSMYq1s4sGmrlOcwrl-1">
          <mxGeometry x="470" y="435" width="130" height="30" as="geometry" />
        </mxCell>
        <mxCell id="jAalTdhDZGkkEJmoj642-0" value="&lt;b&gt;&lt;font style=&quot;font-size: 20px;&quot;&gt;6&lt;/font&gt;&lt;/b&gt;" style="rounded=0;whiteSpace=wrap;html=1;strokeWidth=4;strokeColor=#00FF00;" vertex="1" parent="oWHSMYq1s4sGmrlOcwrl-1">
          <mxGeometry x="214" y="290" width="200" height="40" as="geometry" />
        </mxCell>
        <mxCell id="oWHSMYq1s4sGmrlOcwrl-5" value="&lt;b&gt;&lt;font style=&quot;font-size: 20px;&quot;&gt;6&lt;/font&gt;&lt;/b&gt;" style="rounded=0;whiteSpace=wrap;html=1;strokeWidth=4;strokeColor=#00FF00;" vertex="1" parent="oWHSMYq1s4sGmrlOcwrl-1">
          <mxGeometry x="214" y="490" width="200" height="40" as="geometry" />
        </mxCell>
        <mxCell id="oWHSMYq1s4sGmrlOcwrl-8" value="" style="rounded=0;whiteSpace=wrap;html=1;strokeWidth=4;strokeColor=#3333FF;fillColor=none;" vertex="1" parent="oWHSMYq1s4sGmrlOcwrl-1">
          <mxGeometry x="214" y="330" width="200" height="160" as="geometry" />
        </mxCell>
      </root>
    </mxGraphModel>
  </diagram>
  <diagram name="Pagina-4" id="Z6gUZhKBgLbs0_I14XGT">
    <mxGraphModel dx="1042" dy="531" grid="1" gridSize="10" guides="1" tooltips="1" connect="1" arrows="1" fold="1" page="1" pageScale="1" pageWidth="827" pageHeight="1169" math="0" shadow="0">
      <root>
        <mxCell id="EFsR8-fwe122gJyqPOIh-0" />
        <mxCell id="EFsR8-fwe122gJyqPOIh-1" parent="EFsR8-fwe122gJyqPOIh-0" />
        <mxCell id="EFsR8-fwe122gJyqPOIh-2" value="&lt;b&gt;&lt;font style=&quot;font-size: 20px;&quot;&gt;9&lt;/font&gt;&lt;/b&gt;" style="rounded=0;whiteSpace=wrap;html=1;" vertex="1" parent="EFsR8-fwe122gJyqPOIh-1">
          <mxGeometry x="214" y="370" width="200" height="40" as="geometry" />
        </mxCell>
        <mxCell id="EFsR8-fwe122gJyqPOIh-3" value="&lt;b&gt;&lt;font style=&quot;font-size: 20px;&quot;&gt;8&lt;/font&gt;&lt;/b&gt;" style="rounded=0;whiteSpace=wrap;html=1;" vertex="1" parent="EFsR8-fwe122gJyqPOIh-1">
          <mxGeometry x="214" y="410" width="200" height="40" as="geometry" />
        </mxCell>
        <mxCell id="EFsR8-fwe122gJyqPOIh-4" value="&lt;b&gt;&lt;font style=&quot;font-size: 20px;&quot;&gt;7&lt;/font&gt;&lt;/b&gt;" style="rounded=0;whiteSpace=wrap;html=1;" vertex="1" parent="EFsR8-fwe122gJyqPOIh-1">
          <mxGeometry x="214" y="450" width="200" height="40" as="geometry" />
        </mxCell>
        <mxCell id="EFsR8-fwe122gJyqPOIh-5" value="&lt;b&gt;&lt;font style=&quot;font-size: 20px;&quot;&gt;6&lt;/font&gt;&lt;/b&gt;" style="rounded=0;whiteSpace=wrap;html=1;" vertex="1" parent="EFsR8-fwe122gJyqPOIh-1">
          <mxGeometry x="214" y="490" width="200" height="40" as="geometry" />
        </mxCell>
        <mxCell id="EFsR8-fwe122gJyqPOIh-6" value="&lt;b&gt;&lt;font style=&quot;font-size: 20px;&quot;&gt;5&lt;/font&gt;&lt;/b&gt;" style="rounded=0;whiteSpace=wrap;html=1;" vertex="1" parent="EFsR8-fwe122gJyqPOIh-1">
          <mxGeometry x="214" y="330" width="200" height="40" as="geometry" />
        </mxCell>
        <mxCell id="EFsR8-fwe122gJyqPOIh-7" value="&lt;b&gt;&lt;font style=&quot;font-size: 20px;&quot;&gt;5&lt;/font&gt;&lt;/b&gt;" style="rounded=0;whiteSpace=wrap;html=1;" vertex="1" parent="EFsR8-fwe122gJyqPOIh-1">
          <mxGeometry x="214" y="530" width="200" height="40" as="geometry" />
        </mxCell>
        <mxCell id="EFsR8-fwe122gJyqPOIh-8" value="" style="rounded=0;whiteSpace=wrap;html=1;" vertex="1" parent="EFsR8-fwe122gJyqPOIh-1">
          <mxGeometry x="214" y="170" width="200" height="160" as="geometry" />
        </mxCell>
        <mxCell id="EFsR8-fwe122gJyqPOIh-9" value="" style="html=1;shadow=0;dashed=0;align=center;verticalAlign=middle;shape=mxgraph.arrows2.arrow;dy=0.6;dx=40;notch=0;" vertex="1" parent="EFsR8-fwe122gJyqPOIh-1">
          <mxGeometry x="134" y="200" width="70" height="20" as="geometry" />
        </mxCell>
        <mxCell id="EFsR8-fwe122gJyqPOIh-10" value="&lt;font style=&quot;font-size: 20px;&quot;&gt;&lt;b&gt;BITPLANE POINTER&lt;/b&gt;&lt;/font&gt;" style="text;html=1;align=center;verticalAlign=middle;whiteSpace=wrap;rounded=0;" vertex="1" parent="EFsR8-fwe122gJyqPOIh-1">
          <mxGeometry x="74" y="150" width="120" height="30" as="geometry" />
        </mxCell>
        <mxCell id="EFsR8-fwe122gJyqPOIh-11" value="&lt;b&gt;&lt;font style=&quot;font-size: 20px;&quot;&gt;6&lt;/font&gt;&lt;/b&gt;" style="rounded=0;whiteSpace=wrap;html=1;" vertex="1" parent="EFsR8-fwe122gJyqPOIh-1">
          <mxGeometry x="214" y="290" width="200" height="40" as="geometry" />
        </mxCell>
        <mxCell id="blx14dLM0H9ZHc-oluzc-0" value="&lt;b&gt;&lt;font style=&quot;font-size: 20px;&quot;&gt;7&lt;/font&gt;&lt;/b&gt;" style="rounded=0;whiteSpace=wrap;html=1;" vertex="1" parent="EFsR8-fwe122gJyqPOIh-1">
          <mxGeometry x="214" y="250" width="200" height="40" as="geometry" />
        </mxCell>
        <mxCell id="blx14dLM0H9ZHc-oluzc-1" value="&lt;b&gt;&lt;font style=&quot;font-size: 20px;&quot;&gt;8&lt;/font&gt;&lt;/b&gt;" style="rounded=0;whiteSpace=wrap;html=1;" vertex="1" parent="EFsR8-fwe122gJyqPOIh-1">
          <mxGeometry x="214" y="210" width="200" height="40" as="geometry" />
        </mxCell>
        <mxCell id="blx14dLM0H9ZHc-oluzc-2" value="&lt;b&gt;&lt;font style=&quot;font-size: 20px;&quot;&gt;9&lt;/font&gt;&lt;/b&gt;" style="rounded=0;whiteSpace=wrap;html=1;" vertex="1" parent="EFsR8-fwe122gJyqPOIh-1">
          <mxGeometry x="214" y="170" width="200" height="40" as="geometry" />
        </mxCell>
        <mxCell id="EFsR8-fwe122gJyqPOIh-12" value="" style="rounded=0;whiteSpace=wrap;html=1;strokeWidth=4;strokeColor=#3333FF;fillColor=none;" vertex="1" parent="EFsR8-fwe122gJyqPOIh-1">
          <mxGeometry x="214" y="210" width="200" height="160" as="geometry" />
        </mxCell>
        <mxCell id="eg2WR8Pq_8xCRNtm-O8X-0" value="" style="endArrow=classic;startArrow=classic;html=1;rounded=0;" edge="1" parent="EFsR8-fwe122gJyqPOIh-1">
          <mxGeometry width="50" height="50" relative="1" as="geometry">
            <mxPoint x="450" y="570" as="sourcePoint" />
            <mxPoint x="450" y="210" as="targetPoint" />
          </mxGeometry>
        </mxCell>
        <mxCell id="eg2WR8Pq_8xCRNtm-O8X-1" value="576 pixel" style="text;html=1;align=center;verticalAlign=middle;whiteSpace=wrap;rounded=0;fontStyle=1;fontSize=18;" vertex="1" parent="EFsR8-fwe122gJyqPOIh-1">
          <mxGeometry x="450" y="380" width="130" height="30" as="geometry" />
        </mxCell>
      </root>
    </mxGraphModel>
  </diagram>
  <diagram name="Pagina-5" id="ipGypZr09Z-PZp_f1sfP">
    <mxGraphModel dx="1042" dy="531" grid="1" gridSize="10" guides="1" tooltips="1" connect="1" arrows="1" fold="1" page="1" pageScale="1" pageWidth="827" pageHeight="1169" math="0" shadow="0">
      <root>
        <mxCell id="O3pN2WBg-KYoUMEdkvV0-0" />
        <mxCell id="O3pN2WBg-KYoUMEdkvV0-1" parent="O3pN2WBg-KYoUMEdkvV0-0" />
        <mxCell id="O3pN2WBg-KYoUMEdkvV0-2" value="&lt;b&gt;&lt;font style=&quot;font-size: 20px;&quot;&gt;9&lt;/font&gt;&lt;/b&gt;" style="rounded=0;whiteSpace=wrap;html=1;" vertex="1" parent="O3pN2WBg-KYoUMEdkvV0-1">
          <mxGeometry x="214" y="370" width="200" height="40" as="geometry" />
        </mxCell>
        <mxCell id="O3pN2WBg-KYoUMEdkvV0-3" value="&lt;b&gt;&lt;font style=&quot;font-size: 20px;&quot;&gt;8&lt;/font&gt;&lt;/b&gt;" style="rounded=0;whiteSpace=wrap;html=1;" vertex="1" parent="O3pN2WBg-KYoUMEdkvV0-1">
          <mxGeometry x="214" y="410" width="200" height="40" as="geometry" />
        </mxCell>
        <mxCell id="O3pN2WBg-KYoUMEdkvV0-4" value="&lt;b&gt;&lt;font style=&quot;font-size: 20px;&quot;&gt;7&lt;/font&gt;&lt;/b&gt;" style="rounded=0;whiteSpace=wrap;html=1;" vertex="1" parent="O3pN2WBg-KYoUMEdkvV0-1">
          <mxGeometry x="214" y="450" width="200" height="40" as="geometry" />
        </mxCell>
        <mxCell id="O3pN2WBg-KYoUMEdkvV0-5" value="&lt;b&gt;&lt;font style=&quot;font-size: 20px;&quot;&gt;6&lt;/font&gt;&lt;/b&gt;" style="rounded=0;whiteSpace=wrap;html=1;" vertex="1" parent="O3pN2WBg-KYoUMEdkvV0-1">
          <mxGeometry x="214" y="490" width="200" height="40" as="geometry" />
        </mxCell>
        <mxCell id="O3pN2WBg-KYoUMEdkvV0-6" value="&lt;b&gt;&lt;font style=&quot;font-size: 20px;&quot;&gt;5&lt;/font&gt;&lt;/b&gt;" style="rounded=0;whiteSpace=wrap;html=1;" vertex="1" parent="O3pN2WBg-KYoUMEdkvV0-1">
          <mxGeometry x="214" y="330" width="200" height="40" as="geometry" />
        </mxCell>
        <mxCell id="O3pN2WBg-KYoUMEdkvV0-7" value="&lt;b&gt;&lt;font style=&quot;font-size: 20px;&quot;&gt;5&lt;/font&gt;&lt;/b&gt;" style="rounded=0;whiteSpace=wrap;html=1;" vertex="1" parent="O3pN2WBg-KYoUMEdkvV0-1">
          <mxGeometry x="214" y="530" width="200" height="40" as="geometry" />
        </mxCell>
        <mxCell id="O3pN2WBg-KYoUMEdkvV0-8" value="" style="rounded=0;whiteSpace=wrap;html=1;" vertex="1" parent="O3pN2WBg-KYoUMEdkvV0-1">
          <mxGeometry x="214" y="170" width="200" height="160" as="geometry" />
        </mxCell>
        <mxCell id="O3pN2WBg-KYoUMEdkvV0-9" value="" style="html=1;shadow=0;dashed=0;align=center;verticalAlign=middle;shape=mxgraph.arrows2.arrow;dy=0.6;dx=40;notch=0;" vertex="1" parent="O3pN2WBg-KYoUMEdkvV0-1">
          <mxGeometry x="130" y="560" width="70" height="20" as="geometry" />
        </mxCell>
        <mxCell id="O3pN2WBg-KYoUMEdkvV0-10" value="&lt;font style=&quot;font-size: 20px;&quot;&gt;&lt;b&gt;BITPLANE POINTER&lt;/b&gt;&lt;/font&gt;" style="text;html=1;align=center;verticalAlign=middle;whiteSpace=wrap;rounded=0;" vertex="1" parent="O3pN2WBg-KYoUMEdkvV0-1">
          <mxGeometry x="70" y="510" width="120" height="30" as="geometry" />
        </mxCell>
        <mxCell id="O3pN2WBg-KYoUMEdkvV0-11" value="&lt;b&gt;&lt;font style=&quot;font-size: 20px;&quot;&gt;6&lt;/font&gt;&lt;/b&gt;" style="rounded=0;whiteSpace=wrap;html=1;" vertex="1" parent="O3pN2WBg-KYoUMEdkvV0-1">
          <mxGeometry x="214" y="290" width="200" height="40" as="geometry" />
        </mxCell>
        <mxCell id="O3pN2WBg-KYoUMEdkvV0-12" value="&lt;b&gt;&lt;font style=&quot;font-size: 20px;&quot;&gt;7&lt;/font&gt;&lt;/b&gt;" style="rounded=0;whiteSpace=wrap;html=1;" vertex="1" parent="O3pN2WBg-KYoUMEdkvV0-1">
          <mxGeometry x="214" y="250" width="200" height="40" as="geometry" />
        </mxCell>
        <mxCell id="O3pN2WBg-KYoUMEdkvV0-13" value="&lt;b&gt;&lt;font style=&quot;font-size: 20px;&quot;&gt;8&lt;/font&gt;&lt;/b&gt;" style="rounded=0;whiteSpace=wrap;html=1;" vertex="1" parent="O3pN2WBg-KYoUMEdkvV0-1">
          <mxGeometry x="214" y="210" width="200" height="40" as="geometry" />
        </mxCell>
        <mxCell id="O3pN2WBg-KYoUMEdkvV0-14" value="&lt;b&gt;&lt;font style=&quot;font-size: 20px;&quot;&gt;9&lt;/font&gt;&lt;/b&gt;" style="rounded=0;whiteSpace=wrap;html=1;" vertex="1" parent="O3pN2WBg-KYoUMEdkvV0-1">
          <mxGeometry x="214" y="170" width="200" height="40" as="geometry" />
        </mxCell>
        <mxCell id="O3pN2WBg-KYoUMEdkvV0-15" value="" style="rounded=0;whiteSpace=wrap;html=1;strokeWidth=4;strokeColor=#3333FF;fillColor=none;" vertex="1" parent="O3pN2WBg-KYoUMEdkvV0-1">
          <mxGeometry x="214" y="410" width="200" height="160" as="geometry" />
        </mxCell>
      </root>
    </mxGraphModel>
  </diagram>
  <diagram id="tzdBvSMEbuyJLh_QyBh6" name="Pagina-6">
    <mxGraphModel dx="1042" dy="531" grid="1" gridSize="10" guides="1" tooltips="1" connect="1" arrows="1" fold="1" page="1" pageScale="1" pageWidth="827" pageHeight="1169" math="0" shadow="0">
      <root>
        <mxCell id="0" />
        <mxCell id="1" parent="0" />
        <mxCell id="8YuvSvtVI84jD2SwFvfK-1" value="" style="rounded=0;whiteSpace=wrap;html=1;" vertex="1" parent="1">
          <mxGeometry x="280" y="120" width="200" height="320" as="geometry" />
        </mxCell>
        <mxCell id="8YuvSvtVI84jD2SwFvfK-2" value="" style="rounded=0;whiteSpace=wrap;html=1;strokeWidth=4;strokeColor=#504AFF;fillColor=none;" vertex="1" parent="1">
          <mxGeometry x="280" y="140" width="200" height="160" as="geometry" />
        </mxCell>
        <mxCell id="yiL7kd1SFURfxPua1lUe-1" value="" style="html=1;shadow=0;dashed=0;align=center;verticalAlign=middle;shape=mxgraph.arrows2.arrow;dy=0.6;dx=40;notch=0;" vertex="1" parent="1">
          <mxGeometry x="190" y="130" width="70" height="20" as="geometry" />
        </mxCell>
        <mxCell id="yiL7kd1SFURfxPua1lUe-2" value="&lt;font style=&quot;font-size: 20px;&quot;&gt;&lt;b&gt;BITPLANE POINTER&lt;/b&gt;&lt;/font&gt;" style="text;html=1;align=center;verticalAlign=middle;whiteSpace=wrap;rounded=0;" vertex="1" parent="1">
          <mxGeometry x="130" y="80" width="120" height="30" as="geometry" />
        </mxCell>
      </root>
    </mxGraphModel>
  </diagram>
</mxfile>
